<svg fill="#aaa" viewBox="-200 -180 2120 2120" xmlns="http://www.w3.org/2000/svg"><path d="M 1280.00,640.00q 0.00,80.00 56.00,136.00t 136.00,56.00t 136.00-56.00t 56.00-136.00t -56.00-136.00t -136.00-56.00t -136.00,56.00t -56.00,136.00zM 256.00,1024.00l 0.00,448.00 l 1408.00,0.00 l0.00-192.00 l -320.00-320.00l -160.00,160.00l -512.00-512.00zM 160.00,320.00l 1600.00,0.00 q 13.00,0.00 22.50,9.50t 9.50,22.50l 0.00,1216.00 q 0.00,13.00 -9.50,22.50t -22.50,9.50l -1600.00,0.00 q -13.00,0.00 -22.50-9.50t -9.50-22.50l0.00-1216.00 q0.00-13.00 9.50-22.50t 22.50-9.50zM 0.00,352.00l 0.00,1216.00 q 0.00,66.00 47.00,113.00t 113.00,47.00l 1600.00,0.00 q 66.00,0.00 113.00-47.00t 47.00-113.00l0.00-1216.00 q0.00-66.00 -47.00-113.00t -113.00-47.00l -1600.00,0.00 q -66.00,0.00 -113.00,47.00t -47.00,113.00z"></path></svg>